<svg id="visual" viewBox="0 0 1920 1080" width="1920" height="1080" xmlns="http://www.w3.org/2000/svg" xmlns:xlink="http://www.w3.org/1999/xlink" version="1.1"><rect x="0" y="0" width="1920" height="1080" fill="#191724"></rect><path d="M0 708L45.7 718.2C91.3 728.3 182.7 748.7 274.2 743.8C365.7 739 457.3 709 548.8 695.8C640.3 682.7 731.7 686.3 823 700.5C914.3 714.7 1005.7 739.3 1097 751.7C1188.3 764 1279.7 764 1371.2 750.5C1462.7 737 1554.3 710 1645.8 693.7C1737.3 677.3 1828.7 671.7 1874.3 668.8L1920 666L1920 1081L1874.3 1081C1828.7 1081 1737.3 1081 1645.8 1081C1554.3 1081 1462.7 1081 1371.2 1081C1279.7 1081 1188.3 1081 1097 1081C1005.7 1081 914.3 1081 823 1081C731.7 1081 640.3 1081 548.8 1081C457.3 1081 365.7 1081 274.2 1081C182.7 1081 91.3 1081 45.7 1081L0 1081Z" fill="#569fba"></path><path d="M0 793L45.7 800C91.3 807 182.7 821 274.2 822.3C365.7 823.7 457.3 812.3 548.8 816.8C640.3 821.3 731.7 841.7 823 842.8C914.3 844 1005.7 826 1097 829.7C1188.3 833.3 1279.7 858.7 1371.2 870.8C1462.7 883 1554.3 882 1645.8 879.5C1737.3 877 1828.7 873 1874.3 871L1920 869L1920 1081L1874.3 1081C1828.7 1081 1737.3 1081 1645.8 1081C1554.3 1081 1462.7 1081 1371.2 1081C1279.7 1081 1188.3 1081 1097 1081C1005.7 1081 914.3 1081 823 1081C731.7 1081 640.3 1081 548.8 1081C457.3 1081 365.7 1081 274.2 1081C182.7 1081 91.3 1081 45.7 1081L0 1081Z" fill="#4a90ab"></path><path d="M0 874L45.7 885.7C91.3 897.3 182.7 920.7 274.2 916.2C365.7 911.7 457.3 879.3 548.8 879.8C640.3 880.3 731.7 913.7 823 928.2C914.3 942.7 1005.7 938.3 1097 922.2C1188.3 906 1279.7 878 1371.2 874.2C1462.7 870.3 1554.3 890.7 1645.8 902.2C1737.3 913.7 1828.7 916.3 1874.3 917.7L1920 919L1920 1081L1874.3 1081C1828.7 1081 1737.3 1081 1645.8 1081C1554.3 1081 1462.7 1081 1371.2 1081C1279.7 1081 1188.3 1081 1097 1081C1005.7 1081 914.3 1081 823 1081C731.7 1081 640.3 1081 548.8 1081C457.3 1081 365.7 1081 274.2 1081C182.7 1081 91.3 1081 45.7 1081L0 1081Z" fill="#3e829d"></path><path d="M0 1020L45.7 1015.2C91.3 1010.3 182.7 1000.7 274.2 999.8C365.7 999 457.3 1007 548.8 1004C640.3 1001 731.7 987 823 986.8C914.3 986.7 1005.7 1000.3 1097 1004.5C1188.3 1008.7 1279.7 1003.3 1371.2 992.5C1462.7 981.7 1554.3 965.3 1645.8 961.8C1737.3 958.3 1828.7 967.7 1874.3 972.3L1920 977L1920 1081L1874.3 1081C1828.7 1081 1737.3 1081 1645.8 1081C1554.3 1081 1462.7 1081 1371.2 1081C1279.7 1081 1188.3 1081 1097 1081C1005.7 1081 914.3 1081 823 1081C731.7 1081 640.3 1081 548.8 1081C457.3 1081 365.7 1081 274.2 1081C182.7 1081 91.3 1081 45.7 1081L0 1081Z" fill="#31748f"></path></svg>