<svg id="visual" viewBox="0 0 1920 1080" width="1920" height="1080" xmlns="http://www.w3.org/2000/svg" xmlns:xlink="http://www.w3.org/1999/xlink" version="1.1"><rect x="0" y="0" width="1920" height="1080" fill="#1a1b26"></rect><g transform="translate(1045.0624485786313 497.37308433043574)"><path d="M177.9 -307.3C219.5 -284.1 234.4 -214.1 250 -155C265.6 -96 281.8 -48 279.2 -1.5C276.6 45 255.2 90 250.6 167.9C245.9 245.9 257.9 356.8 219 404.8C180 452.8 90 437.9 15.8 410.6C-58.5 383.3 -117 343.6 -171 304.3C-225 265 -274.4 226 -328.7 175.3C-382.9 124.7 -442 62.3 -448.9 -4C-455.8 -70.3 -410.6 -140.7 -365.6 -207.2C-320.5 -273.7 -275.5 -336.5 -214.6 -348.5C-153.7 -360.5 -76.8 -321.7 -4.3 -314.2C68.2 -306.7 136.3 -330.5 177.9 -307.3" fill="#292e42"></path></g></svg>